<svg width="1486" height="625" viewBox="0 0 1486 625" fill="none" xmlns="http://www.w3.org/2000/svg">
<path d="M381 2.86668C323.8 24.3333 131.533 95.6667 37 130.333C9.26664 140.467 6.19997 141.933 2.99997 147.4C-1.80003 155.133 -0.600025 161.667 10.7333 191.267L21 218.333L21.6666 403L22.3333 587.667L25.2666 594.067C29.8 603.533 40.3333 614.067 50.0666 618.467L58.3333 622.333H235.667H413L421 618.6C433.933 612.6 442.867 602.467 447.4 589.133C449.533 583.133 449.667 566.733 449.667 400.467C449.667 300.333 449.133 217.667 448.6 216.867C445.667 212.333 443.267 212.333 277.8 212.333C179.8 212.333 113.667 211.8 113.667 211.133C113.667 209.667 102.467 213.933 285.133 145.533C410.6 98.4667 434.867 89 436.333 86.3333C438.2 82.8667 438.333 83.2667 419.533 32.6C411.667 11.2667 409.933 7.66668 406.067 4.60001C400.067 0.0666749 390.2 -0.599992 381 2.86668ZM377.667 57.1333C394.2 70.0667 407.8 81.4 408.067 82.3333C408.333 83.2667 407.133 84.4667 405.4 85C403.667 85.5333 392.333 89.8 380.2 94.4667C368.067 99 356.6 103.267 354.867 103.667C351.933 104.333 347.667 101.533 326.2 84.8667C287.667 54.8667 287.133 54.4667 287.533 53.1333C288.067 50.8667 343.533 31.2667 345.667 32.4667C346.733 33 361.133 44.0667 377.667 57.1333ZM242.6 82.0667C248.333 86.7333 262.467 97.8 274.067 106.867C285.667 115.933 295 123.8 294.733 124.6C294.2 126.067 242.333 145.667 239 145.667C236.733 145.667 174.867 97.9333 174.067 95.5333C173.667 94.2 225 74.2 229.933 73.8C231.133 73.8 236.733 77.4 242.6 82.0667ZM152.733 140.467C170.067 153.933 184.067 165.533 183.933 166.2C183.667 166.867 170.733 172.2 155.133 178.067L126.867 188.6L118.6 182.2C78.6 151 61.6666 137.133 62.7333 136.067C64.7333 134.067 116.867 115.133 119.133 115.533C120.2 115.8 135.4 127 152.733 140.467ZM192.867 226.733C193.533 227.8 151.267 287 145.267 293.267C142.6 296.2 141.8 296.333 114.867 296.333C99.6666 296.333 86.8666 295.8 86.4666 295.267C86.2 294.733 96.7333 278.867 109.933 259.933L133.933 225.667H163C179.133 225.667 192.467 226.2 192.867 226.733ZM307.533 226.733C307.933 227.4 302.067 236.2 294.6 246.467C287.133 256.733 276.2 271.8 270.333 280.067L259.667 295H239C227.667 295.133 215 295.4 210.867 295.8C206.6 296.333 203 296.067 202.6 295.4C201.933 294.333 242.6 233.933 248.333 227.267C249.933 225.4 306.333 224.867 307.533 226.733ZM421.533 226.867C422.867 227.8 417.933 235.8 399.667 261.4L376.067 294.6L347.8 295.267C332.333 295.667 319.133 295.533 318.467 294.867C317.4 293.933 361.667 228.867 364.733 226.867C366.6 225.533 419.4 225.667 421.533 226.867Z" fill="#EBE6F0"/>
<path d="M826.6 72.6C821 82.7333 815 94.6 815 95.6666C815 96.0666 819.667 96.3333 825.4 96.3333H835.933L846.733 81.6666C852.733 73.5333 857.667 66.3333 857.667 65.6666C857.667 64.8666 852.2 64.3333 844.467 64.3333H831.267L826.6 72.6Z" fill="#EBE6F0"/>
<path d="M524.733 108.2C515.8 111.267 509.8 115.4 505.267 121.8C497.4 132.6 497.133 134.6 496.6 181.4C496.067 230.467 496.867 239 503.4 249.8C511.4 263.133 524.2 269.667 542.333 269.667C559 269.667 570.2 264.467 577.133 253.533C583.4 243.533 586.733 222.867 582.2 221.133C578.733 219.8 563 220.2 560.2 221.667C558.733 222.467 557.667 224.467 557.667 226.467C557.667 231.4 554.333 238.333 550.867 240.867C549 242.2 545 243 540.867 243C532.2 243 527.8 239.133 525.8 229.533C523.933 220.867 523.933 154.467 525.8 145.933C527.8 136.467 531.933 133 541.133 133C547.4 133 548.867 133.533 552.333 137.133C555.8 140.467 556.6 142.6 557.4 149.8L558.333 158.333L571.533 158.733L584.733 159.133L584.067 147.667C582.733 127.533 572.467 112.2 557.133 107.667C548.2 105 533.267 105.133 524.733 108.2Z" fill="#EBE6F0"/>
<path d="M1003.67 107.4C991.133 111.533 982.6 119.133 977.4 130.333C974.467 136.867 974.333 138.2 973.933 183.667C973.4 236.2 974.067 241.133 982.333 252.6C994.467 269.133 1022.07 274.067 1042.07 263.267C1050.07 259 1055.67 252.733 1060.2 243L1063.67 235.667L1064.07 191.667C1064.6 144.6 1063.93 137.4 1058.33 127.667C1053.93 120.067 1046.07 113 1038.33 109.533C1030.2 105.8 1011.8 104.733 1003.67 107.4ZM1031.13 137.4C1033.4 139.933 1035.13 143.8 1035.67 147.267C1036.07 150.467 1036.33 170.333 1036.07 191.667C1035.67 225.667 1035.4 230.867 1033.27 234.6C1026.73 246.6 1007.8 245.133 1003.4 232.333C1002.33 229.133 1001.8 214.867 1001.8 187.267C1001.67 143.267 1002.07 140.733 1009.13 135.133C1012.33 132.6 1014.2 132.2 1020.2 132.6C1026.2 133.133 1028.07 133.933 1031.13 137.4Z" fill="#EBE6F0"/>
<path d="M1112.73 108.067C1099.93 112.6 1091.53 121.133 1086.87 134.333C1084.33 141.533 1084.2 144.733 1084.6 189.533C1085 236.333 1085 237.133 1088.2 244.067C1092.6 253.8 1103.67 263.667 1113.27 266.467C1123.93 269.533 1142.87 268.6 1151.27 264.6C1159.53 260.6 1167 253.133 1171 244.867C1174.2 238.6 1174.33 237.4 1174.33 210.333V182.333H1153H1131.67L1131.27 192.067C1130.73 204.067 1131.8 205.667 1140.47 205.667H1147V217C1147 231.133 1144.6 237.933 1138.33 240.867C1128.87 245.4 1119 242.2 1115 233.4C1112.6 228.2 1112.33 224.467 1112.33 188.333C1112.33 166.333 1112.87 146.867 1113.67 144.2C1115.53 137.4 1120.33 133.533 1127.53 132.733C1139.8 131.267 1145.67 136.867 1146.87 151L1147.67 159.667H1161H1174.33L1174.2 148.333C1174.2 135.133 1171.53 127.933 1163.53 119C1155.27 109.933 1147.27 106.6 1132.33 106.067C1122.6 105.667 1118.07 106.2 1112.73 108.067Z" fill="#EBE6F0"/>
<path d="M1225.67 107.933C1212.2 112.6 1201.93 122.867 1198.33 135.667C1196.6 141.667 1196.33 150.333 1196.6 189.933C1197 236.2 1197 237.133 1200.2 243.933C1203.8 252.067 1212.6 260.733 1221.4 264.733C1226.6 267.133 1230.07 267.667 1242.33 267.667C1255.8 267.667 1257.67 267.4 1264.73 263.8C1269.93 261.267 1274.2 257.933 1277.67 253.4C1286.6 242.2 1287 239.267 1287 186.867C1287 142.733 1286.87 140.067 1284.2 132.733C1280.33 122.333 1270.33 112.333 1259.93 108.467C1250.6 105 1234.6 104.733 1225.67 107.933ZM1252.2 135.8C1254.47 137.667 1256.87 141.4 1257.67 144.067C1258.47 146.867 1259 165.533 1259 187.933C1259 230.2 1258.33 235.267 1251.67 239.533C1243 245.267 1231.13 242.333 1226.73 233.533C1224.6 229.533 1224.33 224.467 1224.33 187.933C1224.33 143.4 1224.73 140.733 1231.67 135.267C1237.13 131 1246.87 131.267 1252.2 135.8Z" fill="#EBE6F0"/>
<path d="M625.667 111.267C624.067 115.133 592.333 261 592.333 264.467C592.333 266.733 593.533 267 605.533 267C614.6 267 619.133 266.467 619.933 265.4C620.467 264.467 622.2 258.333 623.667 251.667L626.333 239.667H644.333H662.333L664.467 251.267C667.667 268.333 666.2 267 681.533 267C688.867 267 695.133 266.467 695.533 265.8C695.933 265.267 691.133 241.933 684.867 214.2C678.733 186.467 671.133 152.6 668.2 139C665.267 125.4 662.333 113 661.667 111.267C660.467 108.467 659.8 108.333 643.667 108.333C627.533 108.333 626.867 108.467 625.667 111.267ZM645.667 148.867C645.667 149.267 647.933 161.667 650.867 176.6C653.667 191.533 656.467 205.933 656.867 208.6L657.8 213.667H644.2C630.867 213.667 630.733 213.667 631.4 210.6C632.2 207.667 643 149.8 643 148.867C643 148.6 643.667 148.333 644.333 148.333C645.133 148.333 645.667 148.6 645.667 148.867Z" fill="#EBE6F0"/>
<path d="M687.8 110.467C686.6 113.533 686.867 131.4 688.067 133.267C688.733 134.333 694.067 135 703.667 135.267L718.333 135.667L719 201L719.667 266.333H733H746.333L746.733 200.733L747 135.133L762.067 134.733L777 134.333V121.667V109L732.867 108.6C693.4 108.333 688.6 108.467 687.8 110.467Z" fill="#EBE6F0"/>
<path d="M807.267 109.933C806.6 110.867 804.733 117.933 803 125.667C801.4 133.4 794.2 167 786.867 200.333C779.667 233.667 773.667 262.2 773.667 263.933C773.667 266.867 773.933 267 786.867 267C794.2 267 800.467 266.467 800.867 265.8C801.267 265.133 802.6 260.2 803.667 254.867C804.733 249.4 805.933 243.667 806.333 241.933C807 239.133 807.533 239 825 239C845.267 239 843.267 237.667 845.8 253C848.2 267.4 847.667 267 863 267C874.867 267 876.333 266.733 876.333 264.6C876.333 259.533 842.467 110.333 841.133 109.4C838.467 107.533 808.733 108.2 807.267 109.933ZM832.467 180.333C835.8 197.933 838.2 212.733 837.8 213C837.533 213.4 831.533 213.667 824.733 213.667H812.067L812.867 209.933C813.267 207.933 815.8 194.6 818.333 180.333C824.333 147.8 824.2 148.333 825.4 148.333C825.933 148.333 829.133 162.733 832.467 180.333Z" fill="#EBE6F0"/>
<path d="M891.267 187.267L891.667 266.333H925.667H959.667V253.667V241L939.4 240.6L919 240.2L918.733 174.6L918.333 109L904.6 108.6L891 108.2L891.267 187.267Z" fill="#EBE6F0"/>
<path d="M1321.13 271C1244.47 283.133 1191.27 348.867 1195.4 426.333C1196.87 451.8 1204.33 474.867 1218.47 496.467C1226.73 509.133 1247.53 529.933 1260.33 538.333C1307.93 569.4 1369 570.2 1417.8 540.6C1454.47 518.333 1477 485.4 1483.67 444.2C1497 361.8 1447.13 289.133 1365.67 272.333C1355.53 270.333 1330.6 269.533 1321.13 271ZM1351.53 306.467C1360.07 309.4 1369.93 319.133 1372.73 327.533C1377.67 342.067 1374.2 357 1363.53 367.267C1356.6 373.8 1349.4 376.6 1339.4 376.6C1320.2 376.733 1304.33 360.067 1304.33 340.2C1304.33 325.667 1316.47 309.933 1330.87 305.533C1336.6 303.8 1344.87 304.2 1351.53 306.467ZM1279.93 384.467C1292.73 390.6 1301.27 405.933 1299.93 420.333C1299.13 430.067 1295.27 437.267 1287.53 444.2C1260.07 468.333 1218.2 440.067 1230.33 405.533C1237.67 384.867 1260.47 375.133 1279.93 384.467ZM1431.27 384.067C1438.33 387.267 1445.8 394.333 1449 401.133C1453 409.4 1453.27 423.667 1449.67 432.2C1440.2 454.067 1412.07 460.333 1393.8 444.733C1385.4 437.533 1381.13 428.333 1381.13 417C1381.13 408.867 1381.67 406.6 1385.13 400.333C1394.87 383.133 1414.07 376.333 1431.27 384.067ZM1349.8 403.4C1352.33 405.133 1355.13 408.6 1356.2 411.533C1361.53 425.4 1345.27 439.133 1332.33 431.533C1325 427.133 1322.07 416.067 1326.2 408.6C1330.6 400.467 1341.8 398.067 1349.8 403.4ZM1351.27 458.467C1374.87 466.467 1383 497.267 1366.47 515.933C1347.93 537 1313.93 529.8 1306.07 503.133C1297.93 475 1324.07 449.133 1351.27 458.467Z" fill="#EBE6F0"/>
<path d="M499.667 300.467C499.267 301.533 499.133 333.267 499.267 371L499.667 439.667H523.667C553.533 439.667 558.6 438.2 569.667 427.133C579.933 416.867 581.4 411.4 582.467 382.467C583.933 340.6 580.467 323 568.333 311.133C559 302.067 551.533 300.067 524.067 299.267C504.733 298.733 500.2 299 499.667 300.467ZM548.333 329C555.267 335.267 555.667 337.533 555.667 370.333C555.667 403.667 555.267 406.2 548.067 411.4C545.267 413.4 542.2 414.2 535.4 414.2L526.333 414.333L525.933 369.8L525.667 325.4L535.533 325.933C543 326.2 546.2 327 548.333 329Z" fill="#EBE6F0"/>
<path d="M603.267 300.067C601.933 301 601.667 315.933 601.933 370.467L602.333 439.667L634.867 440.067C657.667 440.333 667.933 439.933 669.133 438.867C671.8 436.733 671.667 417.267 669.133 415C667.667 413.933 661.8 413.667 649 413.933C636.067 414.333 630.467 413.933 629.533 412.867C628.867 411.933 628.467 405 628.6 396.867L629 382.333L644.333 381.667L659.667 381L660.333 370.6C660.733 364.867 660.467 359.267 659.933 358.2C659.133 356.733 655.4 356.333 643.533 356.333H628.2L628.6 341.267L629 326.333L646.867 325.933C657.4 325.8 665.533 325 666.6 324.067C668.867 322.2 669 302.867 666.733 300.6C664.867 298.733 606.2 298.333 603.267 300.067Z" fill="#EBE6F0"/>
<path d="M1008.73 467C997.533 469.4 986.2 477.933 981.267 487.667C977.533 495.133 975.933 507 977.533 515.533C980.333 530.733 988.067 539.533 1015.13 557.8C1023.67 563.667 1031.8 570.067 1033.13 572.067C1036.47 576.867 1036.47 587.8 1033.4 592.733C1029.93 597.933 1021.67 600.067 1014.6 597.533C1008.33 595.4 1003 588.733 1003 583.133C1003 577.533 1000.73 576.333 989.533 576.333C982.067 576.333 978.867 576.867 977.667 578.333C975 581.533 977.133 594.467 981.8 603.933C989.133 619 1000.33 625 1021 624.867C1040.2 624.867 1052.47 617.933 1060.6 602.6C1063.27 597.8 1063.67 595 1063.67 582.333C1063.67 568.6 1063.4 567.267 1059.67 560.6C1054.6 551.4 1045.8 543.4 1026.47 530.6C1009.53 519.267 1005.67 514.867 1005.67 506.333C1005.8 494.6 1018.6 488.467 1029.13 494.867C1033.13 497.267 1034.87 500.467 1036.87 510.067L1037.8 513.8L1050.07 513.4L1062.33 513L1062.2 504.2C1062.07 488.2 1052.2 473.933 1037.93 469C1030.2 466.467 1016.07 465.4 1008.73 467Z" fill="#EBE6F0"/>
<path d="M499.667 469.933C499.267 470.867 499.133 505.533 499.267 547L499.667 622.333H513H526.333L527 591.667L527.667 561L546.733 560.6L565.8 560.2L565.4 547.933L565 535.667L546.333 535L527.667 534.333L527.267 515.267L526.867 496.333H548.067C562.6 496.333 569.667 495.8 570.733 494.733C571.667 493.8 572.333 489 572.333 482.333C572.333 475.667 571.667 470.867 570.733 469.933C568.333 467.533 500.467 467.667 499.667 469.933Z" fill="#EBE6F0"/>
<path d="M591.667 469.933C591.267 470.867 591.133 505.533 591.267 547L591.667 622.333H605H618.333V545.667V469L605.267 468.6C595.667 468.333 592.067 468.733 591.667 469.933Z" fill="#EBE6F0"/>
<path d="M646.333 469.933C645.933 470.867 645.8 505.533 645.933 547L646.333 622.333H681.667H717L717.4 609.8C717.667 600.6 717.267 596.867 716.067 596.067C715.133 595.533 705.133 595 694.067 595H673.667L673.4 531.933L673 469L659.933 468.6C650.333 468.333 646.733 468.733 646.333 469.933Z" fill="#EBE6F0"/>
<path d="M736.867 469.4C734.867 470.733 733.533 619.667 735.533 621.667C737.4 623.533 759.4 623.4 761.267 621.533C762.467 620.333 762.6 606.6 762.067 569.8C761.667 537.667 761.8 520.2 762.6 521C763.267 521.667 768.867 538.467 774.867 558.333C780.867 578.067 786.333 595.667 787 597.267C788.2 600.067 789.133 600.333 798.2 600.333C809.933 600.333 807.267 605 820.467 561.667C825.667 544.467 830.6 528.2 831.533 525.667C832.733 521.933 833.133 531.4 833.667 571.667L834.333 622.333L846.467 622.733C855.4 623 859 622.6 860.067 621.267C861.133 619.933 861.4 599.4 860.6 544.2L859.667 469L842.867 468.6C830.467 468.333 825.667 468.733 824.733 469.933C823.533 471.4 818.333 488.2 804.067 537.667C800.2 551.133 798.467 554.867 797 553.533C796.733 553.133 790.867 534.6 784.333 512.333C777.667 489.933 771.533 471 770.733 470.067C769.133 468.2 739.533 467.533 736.867 469.4Z" fill="#EBE6F0"/>
<path d="M886.6 469.267C885.267 470.467 885.533 619.267 886.733 621.4C887.667 622.6 895.933 623 923.8 622.733L959.667 622.333L960.067 609.8C960.333 600.6 959.933 596.867 958.733 596.067C957.8 595.533 947.533 595 936.067 595C911.933 595 913.8 596.2 914.333 580.333C914.467 574.867 914.733 568.067 914.867 565.267L915 560.333H931.4C940.333 560.333 948.467 559.8 949.4 559.267C950.6 558.467 951 554.867 950.733 546.2L950.333 534.333L932.333 533.667L914.333 533L914.467 521C914.6 514.333 914.733 506.2 914.867 502.6L915 496.333H935.533C951.4 496.333 956.333 495.933 957.533 494.467C958.6 493.267 959 488.333 958.733 480.733L958.333 469L922.867 468.6C903.4 468.467 887.133 468.733 886.6 469.267Z" fill="#EBE6F0"/>
<path d="M1195 518.333C1174.2 527.533 1151.4 529.4 1128.87 523.667C1121.67 521.8 1115 520.333 1114.07 520.333C1112.73 520.333 1112.33 527.667 1112.33 554.333C1112.33 593.267 1112.07 592.2 1124.33 594.867C1167.93 604.2 1218.6 594.2 1259.93 568.067C1264.6 565.133 1268.33 562.067 1268.33 561.133C1268.33 560.2 1266.33 558.867 1264.07 557.933C1254.2 554.467 1234.07 539.8 1221.27 526.867C1214.07 519.667 1207.4 513.667 1206.6 513.8C1205.67 513.933 1200.47 515.933 1195 518.333Z" fill="#EBE6F0"/>
</svg>
